SCREENSHOTS:

Eva Angelina - 2 Timing whore 
http://lnk.co/GPJ0I

Jenna Haze - Xmas Present 
http://lnk.co/GPJ0K

Kelly Devine - The Slut Mother 
http://lnk.co/GPJ0M

Rachel Starr - Who is laughing now 
http://lnk.co/GPJ0O

Mason Moore - Dress Conservatively 
http://lnk.co/GPJ0Q


Video
ID                               : 0
Format                           : MPEG-4 Visual
Format profile                   : Advanced Simple@L5
Format settings, BVOP            : 2
Format settings, QPel            : No
Format settings, GMC             : No warppoints
Format settings, Matrix          : Default (H.263)
Codec ID                         : XVID
Codec ID/Hint                    : XviD
Duration                         : 2h 31mn
Bit rate                         : 1 154 Kbps
Width                            : 624 pixels
Height                           : 352 pixels
Display aspect ratio             : 16:9
Frame rate                       : 29.970 fps
Color space                      : YUV
Chroma subsampling               : 4:2:0
Bit depth                        : 8 bits
Scan type                        : Progressive
Compression mode                 : Lossy
Bits/(Pixel*Frame)               : 0.175
Stream size                      : 1.22 GiB (89%)

Audio
ID                               : 1
Format                           : MPEG Audio
Format version                   : Version 1
Format profile                   : Layer 3
Mode                             : Joint stereo
Mode extension                   : MS Stereo
Codec ID                         : 55
Codec ID/Hint                    : MP3
Duration                         : 2h 30mn
Bit rate mode                    : Variable
Bit rate                         : 128 Kbps
Channel(s)                       : 2 channels
Sampling rate                    : 48.0 KHz
Compression mode                 : Lossy
Stream size                      : 136 MiB (10%)
Language                         : English

encoded for iPod,PSP,Zune and other handheld devices...:)